<svg width="124" height="25" viewBox="0 0 124 25" fill="none" xmlns="http://www.w3.org/2000/svg">
<g clip-path="url(#clip0_44_361)">
<path d="M0.964022 24V10.992H5.52402V24H0.964022ZM3.24402 9.55201C2.41202 9.55201 1.74002 9.32001 1.22802 8.85601C0.716022 8.39201 0.460022 7.81601 0.460022 7.12801C0.460022 6.44001 0.716022 5.86401 1.22802 5.40001C1.74002 4.93601 2.41202 4.70401 3.24402 4.70401C4.07602 4.70401 4.74802 4.92801 5.26002 5.37601C5.77202 5.80801 6.02802 6.36801 6.02802 7.05601C6.02802 7.77601 5.77202 8.37601 5.26002 8.85601C4.76402 9.32001 4.09202 9.55201 3.24402 9.55201ZM16.9594 10.776C17.9674 10.776 18.8794 10.984 19.6954 11.4C20.5114 11.8 21.1514 12.424 21.6154 13.272C22.0954 14.12 22.3354 15.216 22.3354 16.56V24H17.7754V17.304C17.7754 16.376 17.5834 15.704 17.1994 15.288C16.8314 14.856 16.3114 14.64 15.6394 14.64C15.1594 14.64 14.7194 14.752 14.3194 14.976C13.9194 15.184 13.6074 15.512 13.3834 15.96C13.1594 16.408 13.0474 16.992 13.0474 17.712V24H8.48746V10.992H12.8314V14.688L11.9914 13.608C12.4874 12.664 13.1674 11.96 14.0314 11.496C14.8954 11.016 15.8714 10.776 16.9594 10.776ZM58.0955 24.448C56.3248 24.448 54.6822 24.1707 53.1675 23.616C51.6742 23.04 50.3728 22.2293 49.2635 21.184C48.1755 20.1387 47.3222 18.912 46.7035 17.504C46.0848 16.0747 45.7755 14.5067 45.7755 12.8C45.7755 11.0933 46.0848 9.53601 46.7035 8.12801C47.3222 6.69868 48.1755 5.46134 49.2635 4.41601C50.3728 3.37068 51.6742 2.57068 53.1675 2.01601C54.6822 1.44001 56.3248 1.15201 58.0955 1.15201C60.1648 1.15201 62.0102 1.51468 63.6315 2.24001C65.2742 2.96534 66.6395 4.01068 67.7275 5.37601L63.6955 9.02401C62.9702 8.17068 62.1702 7.52001 61.2955 7.07201C60.4422 6.62401 59.4822 6.40001 58.4155 6.40001C57.4982 6.40001 56.6555 6.54934 55.8875 6.84801C55.1195 7.14668 54.4582 7.58401 53.9035 8.16001C53.3702 8.71468 52.9435 9.38668 52.6235 10.176C52.3248 10.9653 52.1755 11.84 52.1755 12.8C52.1755 13.76 52.3248 14.6347 52.6235 15.424C52.9435 16.2133 53.3702 16.896 53.9035 17.472C54.4582 18.0267 55.1195 18.4533 55.8875 18.752C56.6555 19.0507 57.4982 19.2 58.4155 19.2C59.4822 19.2 60.4422 18.976 61.2955 18.528C62.1702 18.08 62.9702 17.4293 63.6955 16.576L67.7275 20.224C66.6395 21.568 65.2742 22.6133 63.6315 23.36C62.0102 24.0853 60.1648 24.448 58.0955 24.448ZM70.2645 24V6.65601H76.0565V11.712L75.1925 10.272C75.7045 8.97068 76.5365 8.00001 77.6885 7.36001C78.8405 6.69868 80.2378 6.36801 81.8805 6.36801V11.84C81.6032 11.7973 81.3578 11.776 81.1445 11.776C80.9525 11.7547 80.7392 11.744 80.5045 11.744C79.2672 11.744 78.2645 12.0853 77.4965 12.768C76.7285 13.4293 76.3445 14.5173 76.3445 16.032V24H70.2645ZM93.3213 24.288C91.2733 24.288 89.4813 23.904 87.9453 23.136C86.4306 22.3467 85.2466 21.28 84.3932 19.936C83.5613 18.5707 83.1453 17.024 83.1453 15.296C83.1453 13.568 83.5506 12.032 84.3613 10.688C85.1933 9.32268 86.3346 8.26668 87.7853 7.52001C89.2359 6.75201 90.8679 6.36801 92.6813 6.36801C94.3879 6.36801 95.9453 6.72001 97.3533 7.42401C98.7613 8.10668 99.8813 9.12001 100.713 10.464C101.545 11.808 101.961 13.44 101.961 15.36C101.961 15.5733 101.951 15.8187 101.929 16.096C101.908 16.3733 101.887 16.6293 101.865 16.864H88.1373V13.664H98.6333L96.3293 14.56C96.3506 13.7707 96.2013 13.088 95.8813 12.512C95.5826 11.936 95.1559 11.488 94.6013 11.168C94.0679 10.848 93.4386 10.688 92.7133 10.688C91.9879 10.688 91.3479 10.848 90.7933 11.168C90.2599 11.488 89.8439 11.9467 89.5453 12.544C89.2466 13.12 89.0973 13.8027 89.0973 14.592V15.52C89.0973 16.3733 89.2679 17.1093 89.6093 17.728C89.9719 18.3467 90.4839 18.8267 91.1453 19.168C91.8066 19.488 92.5959 19.648 93.5133 19.648C94.3666 19.648 95.0919 19.5307 95.6893 19.296C96.3079 19.04 96.9159 18.656 97.5133 18.144L100.713 21.472C99.8813 22.3893 98.8573 23.0933 97.6413 23.584C96.4253 24.0533 94.9853 24.288 93.3213 24.288ZM112.317 24.288C110.738 24.288 109.298 23.9253 107.997 23.2C106.717 22.4533 105.693 21.4187 104.924 20.096C104.157 18.752 103.773 17.152 103.773 15.296C103.773 13.4613 104.157 11.8827 104.924 10.56C105.693 9.21601 106.717 8.18134 107.997 7.45601C109.298 6.73068 110.738 6.36801 112.317 6.36801C113.81 6.36801 115.069 6.68801 116.093 7.32801C117.138 7.96801 117.927 8.94934 118.461 10.272C118.994 11.5947 119.26 13.2693 119.26 15.296C119.26 17.3653 119.005 19.0613 118.493 20.384C117.981 21.7067 117.213 22.688 116.189 23.328C115.165 23.968 113.874 24.288 112.317 24.288ZM113.597 19.456C114.279 19.456 114.887 19.296 115.421 18.976C115.975 18.656 116.413 18.1867 116.733 17.568C117.053 16.928 117.213 16.1707 117.213 15.296C117.213 14.4213 117.053 13.6853 116.733 13.088C116.413 12.4693 115.975 12 115.421 11.68C114.887 11.36 114.279 11.2 113.597 11.2C112.893 11.2 112.263 11.36 111.709 11.68C111.175 12 110.749 12.4693 110.429 13.088C110.109 13.6853 109.949 14.4213 109.949 15.296C109.949 16.1707 110.109 16.928 110.429 17.568C110.749 18.1867 111.175 18.656 111.709 18.976C112.263 19.296 112.893 19.456 113.597 19.456ZM117.405 24V21.024L117.437 15.296L117.117 9.56801V0.256012H123.197V24H117.405Z" fill="#F2C94C"/>
<path fill-rule="evenodd" clip-rule="evenodd" d="M33.7428 6.30539C33.9063 6.23154 34.0937 6.23154 34.2572 6.30539C37.3646 7.70872 38.7595 8.15708 42.2002 8.77427C42.4835 8.82509 42.6955 9.06283 42.7136 9.3501C43.3742 19.8194 34.878 23.4452 34.2335 23.7048C34.0837 23.7651 33.9163 23.7651 33.7665 23.7048C33.122 23.4452 24.6258 19.8194 25.2864 9.3501C25.3045 9.06283 25.5165 8.82509 25.7998 8.77427C29.2405 8.15708 30.6354 7.70872 33.7428 6.30539ZM26.5101 9.91534C26.2154 18.4424 32.6071 21.8128 34 22.4445C35.3929 21.8128 41.7846 18.4424 41.4899 9.91534C38.3806 9.33812 36.8766 8.84928 34 7.56034C31.1234 8.84928 29.6194 9.33812 26.5101 9.91534Z" fill="#F2C94C"/>
<path d="M34 6.875C30.8473 8.29883 29.4032 8.76289 25.9102 9.38945C25.2774 19.4191 33.3977 22.8824 34 23.125V6.875Z" fill="#F2C94C"/>
</g>
<defs>
<clipPath id="clip0_44_361">
<rect width="124" height="25" fill="white"/>
</clipPath>
</defs>
</svg>
